<svg width="417" height="64" viewBox="0 0 417 64" fill="none" xmlns="http://www.w3.org/2000/svg">
<g clip-path="url(#clip0)">
<path d="M83.6924 49.2308H90.5027V36.528H97.6985C106.381 36.528 111.044 31.3147 111.044 24.0822C111.044 16.9048 106.436 11.6364 97.7903 11.6364H83.6924V49.2308ZM90.5027 30.9292V17.327H96.744C101.847 17.327 104.105 20.0805 104.105 24.0822C104.105 28.084 101.847 30.9292 96.7807 30.9292H90.5027Z" fill="white"/>
<path d="M116.666 49.2308H123.311V21.035H116.666V49.2308ZM120.006 17.0333C122.117 17.0333 123.843 15.4179 123.843 13.4354C123.843 11.4345 122.117 9.81909 120.006 9.81909C117.877 9.81909 116.152 11.4345 116.152 13.4354C116.152 15.4179 117.877 17.0333 120.006 17.0333Z" fill="white"/>
<path d="M155.329 21.035H148.262L141.764 41.9799H141.47L134.99 21.035H127.904L137.945 49.2308H145.288L155.329 21.035Z" fill="white"/>
<path d="M171.267 49.7815C179.528 49.7815 184.778 43.9625 184.778 35.243C184.778 26.5053 179.528 20.6679 171.267 20.6679C163.007 20.6679 157.757 26.5053 157.757 35.243C157.757 43.9625 163.007 49.7815 171.267 49.7815ZM171.304 44.4581C166.733 44.4581 164.494 40.3829 164.494 35.2247C164.494 30.0665 166.733 25.9362 171.304 25.9362C175.801 25.9362 178.041 30.0665 178.041 35.2247C178.041 40.3829 175.801 44.4581 171.304 44.4581Z" fill="white"/>
<path d="M204.497 21.035H198.935V14.2798H192.29V21.035H188.289V26.1749H192.29V41.8514C192.254 47.1565 196.108 49.7632 201.101 49.6163C202.992 49.5612 204.296 49.1941 205.011 48.9555L203.892 43.7605C203.525 43.8523 202.772 44.0175 201.946 44.0175C200.275 44.0175 198.935 43.4301 198.935 40.75V26.1749H204.497V21.035Z" fill="white"/>
<path d="M218.169 49.7999C222.593 49.7999 225.236 47.7256 226.447 45.3576H226.668V49.2308H233.056V30.3602C233.056 22.9074 226.98 20.6679 221.601 20.6679C215.672 20.6679 211.12 23.3112 209.651 28.4511L215.856 29.3322C216.516 27.4048 218.389 25.7527 221.638 25.7527C224.722 25.7527 226.411 27.3313 226.411 30.1032V30.2133C226.411 32.1224 224.41 32.2142 219.435 32.7465C213.965 33.334 208.733 34.9677 208.733 41.3191C208.733 46.8628 212.79 49.7999 218.169 49.7999ZM219.894 44.917C217.122 44.917 215.14 43.6504 215.14 41.209C215.14 38.6574 217.361 37.5927 220.335 37.1705C222.079 36.9319 225.566 36.4913 226.429 35.7937V39.1163C226.429 42.2553 223.896 44.917 219.894 44.917Z" fill="white"/>
<path d="M246.383 11.6364H239.738V49.2308H246.383V11.6364Z" fill="white"/>
<path d="M266.332 49.2308H273.142V36.528H280.338C289.021 36.528 293.683 31.3147 293.683 24.0822C293.683 16.9048 289.076 11.6364 280.43 11.6364H266.332V49.2308ZM273.142 30.9292V17.327H279.383C284.487 17.327 286.744 20.0805 286.744 24.0822C286.744 28.084 284.487 30.9292 279.42 30.9292H273.142Z" fill="white"/>
<path d="M311.2 49.7815C319.461 49.7815 324.711 43.9625 324.711 35.243C324.711 26.5053 319.461 20.6679 311.2 20.6679C302.94 20.6679 297.69 26.5053 297.69 35.243C297.69 43.9625 302.94 49.7815 311.2 49.7815ZM311.237 44.4581C306.666 44.4581 304.426 40.3829 304.426 35.2247C304.426 30.0665 306.666 25.9362 311.237 25.9362C315.734 25.9362 317.974 30.0665 317.974 35.2247C317.974 40.3829 315.734 44.4581 311.237 44.4581Z" fill="white"/>
<path d="M330.351 49.2308H336.996V21.035H330.351V49.2308ZM333.691 17.0333C335.802 17.0333 337.528 15.4179 337.528 13.4354C337.528 11.4345 335.802 9.81909 333.691 9.81909C331.562 9.81909 329.837 11.4345 329.837 13.4354C329.837 15.4179 331.562 17.0333 333.691 17.0333Z" fill="white"/>
<path d="M350.474 32.7098C350.474 28.6347 352.934 26.285 356.44 26.285C359.873 26.285 361.929 28.5429 361.929 32.306V49.2308H368.574V31.278C368.592 24.5228 364.737 20.6679 358.918 20.6679C354.696 20.6679 351.796 22.6871 350.511 25.8261H350.18V21.035H343.829V49.2308H350.474V32.7098Z" fill="white"/>
<path d="M389.408 21.035H383.846V14.2798H377.201V21.035H373.2V26.1749H377.201V41.8514C377.165 47.1565 381.02 49.7632 386.013 49.6163C387.903 49.5612 389.207 49.1941 389.922 48.9555L388.803 43.7605C388.436 43.8523 387.683 44.0175 386.857 44.0175C385.186 44.0175 383.846 43.4301 383.846 40.75V26.1749H389.408V21.035Z" fill="white"/>
<path d="M416.847 28.4878C415.929 23.7151 412.111 20.6679 405.503 20.6679C398.711 20.6679 394.085 24.0088 394.103 29.2221C394.085 33.334 396.618 36.0507 402.033 37.1705L406.843 38.1801C409.431 38.7492 410.643 39.7955 410.643 41.3925C410.643 43.32 408.55 44.7701 405.393 44.7701C402.345 44.7701 400.363 43.4485 399.794 40.9152L393.314 41.5394C394.14 46.7159 398.49 49.7815 405.411 49.7815C412.46 49.7815 417.434 46.1285 417.453 40.7868C417.434 36.7666 414.846 34.3069 409.523 33.1504L404.713 32.1224C401.85 31.4799 400.712 30.4887 400.73 28.8549C400.712 26.9458 402.823 25.6242 405.594 25.6242C408.66 25.6242 410.275 27.2946 410.789 29.1486L416.847 28.4878Z" fill="white"/>
<path opacity="0.4" fill-rule="evenodd" clip-rule="evenodd" d="M34.4616 59.077C42.6184 59.077 49.2308 52.4646 49.2308 44.3078C49.2308 36.151 42.6184 29.5386 34.4616 29.5386C26.3048 29.5386 19.6924 36.151 19.6924 44.3078C19.6924 52.4646 26.3048 59.077 34.4616 59.077ZM34.4616 64.0001C45.3374 64.0001 54.1539 55.1835 54.1539 44.3078C54.1539 33.432 45.3374 24.6155 34.4616 24.6155C23.5858 24.6155 14.7693 33.432 14.7693 44.3078C14.7693 55.1835 23.5858 64.0001 34.4616 64.0001Z" fill="white"/>
<path opacity="0.6" fill-rule="evenodd" clip-rule="evenodd" d="M34.4616 34.4615C42.6184 34.4615 49.2308 27.8491 49.2308 19.6923C49.2308 11.5355 42.6184 4.92308 34.4616 4.92308C26.3048 4.92308 19.6924 11.5355 19.6924 19.6923C19.6924 27.8491 26.3048 34.4615 34.4616 34.4615ZM34.4616 39.3846C45.3374 39.3846 54.1539 30.5681 54.1539 19.6923C54.1539 8.81655 45.3374 0 34.4616 0C23.5858 0 14.7693 8.81655 14.7693 19.6923C14.7693 30.5681 23.5858 39.3846 34.4616 39.3846Z" fill="white"/>
<path opacity="0.8" fill-rule="evenodd" clip-rule="evenodd" d="M19.6923 46.7692C27.8491 46.7692 34.4615 40.1567 34.4615 31.9999C34.4615 23.8431 27.8491 17.2307 19.6923 17.2307C11.5355 17.2307 4.92308 23.8431 4.92308 31.9999C4.92308 40.1567 11.5355 46.7692 19.6923 46.7692ZM19.6923 51.6922C30.5681 51.6922 39.3846 42.8757 39.3846 31.9999C39.3846 21.1242 30.5681 12.3076 19.6923 12.3076C8.81655 12.3076 0 21.1242 0 31.9999C0 42.8757 8.81655 51.6922 19.6923 51.6922Z" fill="white"/>
</g>
<defs>
<clipPath id="clip0">
<rect width="417" height="64" fill="white"/>
</clipPath>
</defs>
</svg>
