<svg xmlns="http://www.w3.org/2000/svg" viewBox="0 0 427.09 84.57"><defs><style>.cls-1,.cls-2,.cls-3{fill:none;stroke:#8e6909;stroke-width:3px;isolation:isolate;}.cls-1{opacity:0.5;}.cls-2{opacity:0.6;}.cls-3{opacity:0.8;} path{fill:rgb(54,57,67);}</style></defs><title>PP</title><g id="Layer_2" data-name="Layer 2"><g id="Layer_1-2" data-name="Layer 1"><ellipse class="cls-1" cx="27.31" cy="46.68" rx="25.81" ry="36.39"/><ellipse class="cls-2" cx="42.83" cy="51.12" rx="25.4" ry="35.82" transform="translate(-22.85 62.65) rotate(-60)"/><ellipse class="cls-3" cx="39.2" cy="28.74" rx="34.4" ry="24.39" transform="translate(-9.12 23.45) rotate(-30)"/><path class="txt" d="M108.67,31.48h8c5.62,0,9.78,1.95,9.78,7.8,0,5.64-4.18,8.2-9.62,8.2h-3.64v9.3h-4.49Zm7.75,12.41c3.78,0,5.57-1.5,5.57-4.61s-2-4.21-5.72-4.21h-3.11v8.82Z"/><path class="txt" d="M135.05,31.48h4.49v25.3h-4.49Z"/><path d="M146.47,31.48h4.75l3.56,12.72c.82,2.87,1.38,5.35,2.23,8.23h.15c.86-2.88,1.44-5.36,2.23-8.23l3.51-12.72h4.58l-7.83,25.3h-5.32Z"/><path d="M172.72,44c0-8.19,4.56-13,11.15-13S195,35.87,195,44s-4.57,13.21-11.16,13.21S172.72,52.21,172.72,44Zm17.7,0c0-5.68-2.57-9.11-6.55-9.11s-6.54,3.43-6.54,9.11,2.56,9.31,6.54,9.31S190.42,49.71,190.42,44Z"/><path d="M208.09,35.26h-7.31V31.48h19.1v3.78h-7.31V56.78h-4.48Z"/><path d="M231.37,31.48h5.26l8.25,25.3h-4.75l-3.85-13.46c-.81-2.68-1.55-5.57-2.29-8.34h-.16c-.69,2.8-1.43,5.66-2.24,8.34l-3.88,13.46h-4.58ZM228,46.4h11.91v3.52H228Z"/><path d="M251.64,31.48h4.49V53h10.51v3.78h-15Z"/><path d="M286.54,31.48h8c5.62,0,9.78,1.95,9.78,7.8,0,5.64-4.18,8.2-9.62,8.2H291v9.3h-4.48Zm7.75,12.41c3.77,0,5.57-1.5,5.57-4.61s-2-4.21-5.73-4.21H291v8.82Z"/><path class="txt" d="M311.59,44c0-8.19,4.56-13,11.15-13s11.16,4.85,11.16,13-4.57,13.21-11.16,13.21S311.59,52.21,311.59,44Zm17.7,0c0-5.68-2.57-9.11-6.55-9.11S316.2,38.35,316.2,44s2.56,9.31,6.54,9.31S329.29,49.71,329.29,44Z"/><path d="M342.86,31.48h4.48v25.3h-4.48Z"/><path d="M357.63,31.48h4.61L370.1,45.7l2.62,5.4h.15c-.21-2.62-.57-5.82-.57-8.63v-11h4.27v25.3H372L364.1,42.54l-2.61-5.38h-.16c.22,2.68.57,5.72.57,8.54V56.78h-4.27Z"/><path d="M392,35.26h-7.3V31.48h19.09v3.78h-7.3V56.78H392Z"/><path d="M408.9,53.54l2.61-3.08a10,10,0,0,0,6.59,2.88c2.85,0,4.41-1.29,4.41-3.26s-1.63-2.75-3.93-3.72l-3.46-1.5c-2.49-1-5.11-3-5.11-6.71,0-4,3.56-7.13,8.49-7.13a11.09,11.09,0,0,1,7.8,3.22L424,37.09a8.15,8.15,0,0,0-5.5-2.17c-2.4,0-4,1.12-4,3s1.93,2.72,4,3.58L422,42.9c3,1.25,5.11,3.16,5.11,6.82,0,4.1-3.4,7.52-9.08,7.52A13,13,0,0,1,408.9,53.54Z"/></g></g></svg>
